<?xml version="1.0" encoding="UTF-8"?>
<!DOCTYPE svg PUBLIC "-//W3C//DTD SVG 1.1//EN" "http://www.w3.org/Graphics/SVG/1.1/DTD/svg11.dtd">
<!-- Creator: CorelDRAW -->
<svg xmlns="http://www.w3.org/2000/svg" xml:space="preserve" width="121.639mm" height="29.2037mm" version="1.1" style="shape-rendering:geometricPrecision; text-rendering:geometricPrecision; image-rendering:optimizeQuality; fill-rule:evenodd; clip-rule:evenodd"
viewBox="0 0 213.62 51.29"
 xmlns:xlink="http://www.w3.org/1999/xlink"
 xmlns:xodm="http://www.corel.com/coreldraw/odm/2003">
 <defs>
  <style type="text/css">
   <![CDATA[
    .fil0 {fill:#201F1F;fill-rule:nonzero}
    .fil3 {fill:url(#id0)}
    .fil2 {fill:url(#id1)}
    .fil1 {fill:url(#id2)}
   ]]>
  </style>
  <linearGradient id="id0" gradientUnits="userSpaceOnUse" x1="33.78" y1="18.18" x2="6.17" y2="34.12">
   <stop offset="0" style="stop-opacity:1; stop-color:#F8C241"/>
   <stop offset="1" style="stop-opacity:1; stop-color:#F6A638"/>
  </linearGradient>
  <linearGradient id="id1" gradientUnits="userSpaceOnUse" x1="48.9" y1="37.91" x2="26.22" y2="51">
   <stop offset="0" style="stop-opacity:1; stop-color:#A5CE3A"/>
   <stop offset="1" style="stop-opacity:1; stop-color:#53B949"/>
  </linearGradient>
  <linearGradient id="id2" gradientUnits="userSpaceOnUse" x1="65.69" y1="10.26" x2="-10.71" y2="54.36">
   <stop offset="0" style="stop-opacity:1; stop-color:#2E59A6"/>
   <stop offset="1" style="stop-opacity:1; stop-color:#00B0F0"/>
  </linearGradient>
 </defs>
 <g id="Layer_x0020_1">
  <metadata id="CorelCorpID_0Corel-Layer"/>
  <path class="fil0" d="M84.1 7.4l5.61 0 0 2.56 -5.61 0 0 -2.56zm0.24 4.77l6.32 0 0 2.64 -9.7 0 0 -12.09 9.48 0 0 2.64 -6.1 0 0 6.8zm8.22 2.64l0 -12.09 3.42 0 0 12.09 -3.42 0zm8.91 -2.68l-0.19 -3.83 5.2 -5.58 3.76 0 -5.18 5.61 -1.9 1.99 -1.69 1.81zm-3.06 2.68l0 -12.09 3.38 0 0 12.09 -3.38 0zm8.12 0l-3.94 -4.99 2.23 -2.38 5.68 7.37 -3.97 0zm10.53 0.24c-0.97,0 -1.86,-0.16 -2.68,-0.47 -0.82,-0.31 -1.53,-0.75 -2.13,-1.32 -0.6,-0.57 -1.07,-1.23 -1.41,-1.99 -0.33,-0.76 -0.5,-1.59 -0.5,-2.5 0,-0.91 0.17,-1.74 0.5,-2.5 0.33,-0.76 0.8,-1.42 1.41,-1.99 0.6,-0.57 1.32,-1.01 2.13,-1.32 0.82,-0.31 1.71,-0.47 2.68,-0.47 0.98,0 1.87,0.16 2.69,0.47 0.81,0.31 1.52,0.75 2.12,1.32 0.6,0.57 1.07,1.23 1.41,1.99 0.34,0.76 0.51,1.59 0.51,2.5 0,0.91 -0.17,1.75 -0.51,2.51 -0.34,0.77 -0.81,1.43 -1.41,1.99 -0.6,0.56 -1.3,1 -2.12,1.31 -0.81,0.31 -1.71,0.47 -2.69,0.47zm0 -2.83c0.46,0 0.89,-0.08 1.29,-0.24 0.4,-0.16 0.74,-0.39 1.04,-0.7 0.29,-0.31 0.52,-0.67 0.69,-1.1 0.17,-0.43 0.25,-0.9 0.25,-1.42 0,-0.53 -0.08,-1 -0.25,-1.42 -0.17,-0.42 -0.4,-0.78 -0.69,-1.09 -0.29,-0.31 -0.64,-0.54 -1.04,-0.7 -0.4,-0.16 -0.83,-0.24 -1.29,-0.24 -0.46,0 -0.89,0.08 -1.29,0.24 -0.4,0.16 -0.74,0.39 -1.04,0.7 -0.29,0.31 -0.52,0.67 -0.69,1.09 -0.17,0.42 -0.25,0.9 -0.25,1.42 0,0.52 0.08,0.99 0.25,1.42 0.17,0.43 0.4,0.79 0.69,1.1 0.29,0.31 0.64,0.54 1.04,0.7 0.4,0.16 0.83,0.24 1.29,0.24zm8.51 2.59l0 -12.09 2.81 0 6.67 8.05 -1.33 0 0 -8.05 3.35 0 0 12.09 -2.81 0 -6.67 -8.05 1.33 0 0 8.05 -3.35 0zm18.94 0l0 -12.09 5.53 0c1.11,0 2.06,0.18 2.86,0.54 0.8,0.36 1.42,0.87 1.86,1.55 0.44,0.67 0.66,1.47 0.66,2.39 0,0.91 -0.22,1.7 -0.66,2.37 -0.44,0.67 -1.06,1.18 -1.86,1.55 -0.8,0.36 -1.75,0.54 -2.86,0.54l-3.63 0 1.52 -1.49 0 4.64 -3.42 0zm3.42 -4.28l-1.52 -1.57 3.42 0c0.71,0 1.25,-0.16 1.6,-0.47 0.35,-0.31 0.53,-0.74 0.53,-1.3 0,-0.56 -0.18,-1 -0.53,-1.31 -0.35,-0.31 -0.88,-0.47 -1.6,-0.47l-3.42 0 1.52 -1.57 0 6.68zm12.28 -3.13l5.61 0 0 2.56 -5.61 0 0 -2.56zm0.24 4.77l6.32 0 0 2.64 -9.7 0 0 -12.09 9.48 0 0 2.64 -6.1 0 0 6.8zm10.79 2.64l0 -9.38 -3.71 0 0 -2.71 10.83 0 0 2.71 -3.7 0 0 9.38 -3.42 0zm11.53 -7.41l5.61 0 0 2.56 -5.61 0 0 -2.56zm0.24 4.77l6.32 0 0 2.64 -9.7 0 0 -12.09 9.48 0 0 2.64 -6.1 0 0 6.8zm8.22 2.64l0 -12.09 5.53 0c1.11,0 2.06,0.18 2.86,0.54 0.8,0.36 1.42,0.87 1.86,1.55 0.44,0.67 0.66,1.47 0.66,2.39 0,0.91 -0.22,1.7 -0.66,2.36 -0.44,0.66 -1.06,1.17 -1.86,1.52 -0.8,0.35 -1.75,0.53 -2.86,0.53l-3.63 0 1.52 -1.43 0 4.64 -3.42 0zm7.48 0l-3 -4.4 3.64 0 3.02 4.4 -3.66 0zm-4.06 -4.28l-1.52 -1.57 3.42 0c0.71,0 1.25,-0.16 1.6,-0.47 0.35,-0.31 0.53,-0.74 0.53,-1.3 0,-0.56 -0.18,-1 -0.53,-1.31 -0.35,-0.31 -0.88,-0.47 -1.6,-0.47l-3.42 0 1.52 -1.57 0 6.68zm13.61 4.52c-0.99,0 -1.94,-0.12 -2.86,-0.37 -0.92,-0.25 -1.66,-0.57 -2.24,-0.96l1.12 -2.52c0.54,0.35 1.17,0.63 1.87,0.85 0.71,0.22 1.41,0.34 2.12,0.34 0.47,0 0.85,-0.04 1.14,-0.13 0.29,-0.09 0.5,-0.2 0.63,-0.35 0.13,-0.14 0.2,-0.31 0.2,-0.51 0,-0.28 -0.13,-0.49 -0.38,-0.66 -0.25,-0.16 -0.58,-0.29 -0.98,-0.4 -0.4,-0.1 -0.85,-0.21 -1.34,-0.31 -0.49,-0.1 -0.98,-0.24 -1.47,-0.4 -0.49,-0.16 -0.94,-0.37 -1.34,-0.63 -0.4,-0.26 -0.73,-0.6 -0.98,-1.02 -0.25,-0.42 -0.38,-0.95 -0.38,-1.6 0,-0.73 0.2,-1.38 0.6,-1.97 0.4,-0.59 0.99,-1.06 1.79,-1.42 0.79,-0.36 1.78,-0.54 2.97,-0.54 0.79,0 1.57,0.09 2.34,0.27 0.77,0.18 1.45,0.44 2.05,0.79l-1.05 2.54c-0.58,-0.31 -1.15,-0.54 -1.71,-0.7 -0.56,-0.16 -1.11,-0.23 -1.64,-0.23 -0.47,0 -0.85,0.05 -1.14,0.15 -0.29,0.1 -0.49,0.23 -0.62,0.39 -0.13,0.16 -0.19,0.35 -0.19,0.55 0,0.26 0.12,0.47 0.37,0.63 0.25,0.16 0.58,0.28 0.98,0.38 0.41,0.1 0.86,0.2 1.35,0.3 0.49,0.1 0.98,0.23 1.47,0.39 0.49,0.16 0.94,0.36 1.34,0.62 0.4,0.26 0.73,0.6 0.98,1.02 0.25,0.42 0.37,0.95 0.37,1.58 0,0.7 -0.2,1.35 -0.6,1.94 -0.4,0.59 -0.99,1.07 -1.78,1.42 -0.79,0.36 -1.78,0.54 -2.98,0.54zm-127.31 16.7l0 -12.09 3.42 0 0 12.09 -3.42 0zm5.85 0l0 -12.09 2.81 0 5.01 8.22 -1.49 0 4.87 -8.22 2.81 0 0.03 12.09 -3.14 0 -0.03 -7.3 0.54 0 -3.64 6.11 -1.52 0 -3.75 -6.11 0.66 0 0 7.3 -3.16 0zm16.47 0l0 -12.09 2.81 0 5.01 8.22 -1.49 0 4.87 -8.22 2.81 0 0.03 12.09 -3.14 0 -0.03 -7.3 0.54 0 -3.64 6.11 -1.52 0 -3.75 -6.11 0.66 0 0 7.3 -3.16 0zm16.47 0l0 -12.09 3.42 0 0 12.09 -3.42 0zm11.9 0.24c-0.96,0 -1.84,-0.15 -2.66,-0.46 -0.82,-0.31 -1.52,-0.74 -2.12,-1.3 -0.59,-0.56 -1.06,-1.23 -1.39,-1.99 -0.33,-0.77 -0.5,-1.61 -0.5,-2.53 0,-0.92 0.17,-1.76 0.5,-2.53 0.33,-0.77 0.8,-1.43 1.4,-1.99 0.6,-0.56 1.31,-1 2.13,-1.3 0.82,-0.31 1.72,-0.46 2.7,-0.46 1.14,0 2.16,0.19 3.06,0.57 0.9,0.38 1.64,0.93 2.23,1.64l-2.18 1.97c-0.41,-0.45 -0.86,-0.79 -1.34,-1.01 -0.48,-0.22 -1.01,-0.34 -1.6,-0.34 -0.52,0 -0.99,0.08 -1.42,0.24 -0.43,0.16 -0.79,0.39 -1.09,0.7 -0.3,0.31 -0.53,0.67 -0.7,1.09 -0.17,0.42 -0.25,0.9 -0.25,1.42 0,0.51 0.08,0.97 0.25,1.4 0.17,0.43 0.4,0.79 0.7,1.1 0.3,0.31 0.66,0.54 1.08,0.71 0.42,0.17 0.88,0.25 1.39,0.25 0.51,0 1,-0.08 1.48,-0.25 0.48,-0.17 0.97,-0.45 1.47,-0.85l1.92 2.4c-0.69,0.49 -1.49,0.87 -2.4,1.14 -0.91,0.26 -1.8,0.4 -2.68,0.4zm2.05 -1.99l0 -4.56 3.02 0 0 5.01 -3.02 -0.45zm5.2 1.74l0 -12.09 5.53 0c1.11,0 2.06,0.18 2.86,0.54 0.8,0.36 1.42,0.87 1.86,1.55 0.44,0.67 0.66,1.47 0.66,2.39 0,0.91 -0.22,1.7 -0.66,2.36 -0.44,0.66 -1.06,1.17 -1.86,1.52 -0.8,0.35 -1.75,0.53 -2.86,0.53l-3.63 0 1.52 -1.43 0 4.64 -3.42 0zm7.48 0l-3 -4.4 3.64 0 3.02 4.4 -3.66 0zm-4.06 -4.28l-1.52 -1.57 3.42 0c0.71,0 1.25,-0.16 1.6,-0.47 0.35,-0.31 0.53,-0.74 0.53,-1.3 0,-0.56 -0.18,-1 -0.53,-1.31 -0.35,-0.31 -0.88,-0.47 -1.6,-0.47l-3.42 0 1.52 -1.57 0 6.68zm7.91 4.28l5.34 -12.09 3.37 0 5.35 12.09 -3.56 0 -4.18 -10.41 1.35 0 -4.18 10.41 -3.49 0zm2.92 -2.35l0.88 -2.52 5.91 0 0.88 2.52 -7.67 0zm14.07 2.35l0 -9.38 -3.71 0 0 -2.71 10.83 0 0 2.71 -3.7 0 0 9.38 -3.42 0zm8.39 0l0 -12.09 3.42 0 0 12.09 -3.42 0zm11.95 0.24c-0.97,0 -1.86,-0.16 -2.68,-0.47 -0.82,-0.31 -1.53,-0.75 -2.13,-1.32 -0.6,-0.57 -1.07,-1.23 -1.41,-1.99 -0.33,-0.76 -0.5,-1.59 -0.5,-2.5 0,-0.91 0.17,-1.74 0.5,-2.5 0.33,-0.76 0.8,-1.42 1.41,-1.99 0.6,-0.57 1.32,-1.01 2.13,-1.32 0.82,-0.31 1.71,-0.47 2.68,-0.47 0.98,0 1.87,0.16 2.69,0.47 0.81,0.31 1.52,0.75 2.12,1.32 0.6,0.57 1.07,1.23 1.41,1.99 0.34,0.76 0.51,1.59 0.51,2.5 0,0.91 -0.17,1.75 -0.51,2.51 -0.34,0.77 -0.81,1.43 -1.41,1.99 -0.6,0.56 -1.3,1 -2.12,1.31 -0.81,0.31 -1.71,0.47 -2.69,0.47zm0 -2.83c0.46,0 0.89,-0.08 1.29,-0.24 0.4,-0.16 0.74,-0.39 1.04,-0.7 0.29,-0.31 0.52,-0.67 0.69,-1.1 0.17,-0.43 0.25,-0.9 0.25,-1.42 0,-0.53 -0.08,-1 -0.25,-1.42 -0.17,-0.42 -0.4,-0.78 -0.69,-1.09 -0.29,-0.31 -0.64,-0.54 -1.04,-0.7 -0.4,-0.16 -0.83,-0.24 -1.29,-0.24 -0.46,0 -0.89,0.08 -1.29,0.24 -0.4,0.16 -0.74,0.39 -1.04,0.7 -0.29,0.31 -0.52,0.67 -0.69,1.09 -0.17,0.42 -0.25,0.9 -0.25,1.42 0,0.52 0.08,0.99 0.25,1.42 0.17,0.43 0.4,0.79 0.69,1.1 0.29,0.31 0.64,0.54 1.04,0.7 0.4,0.16 0.83,0.24 1.29,0.24zm8.51 2.59l0 -12.09 2.81 0 6.67 8.05 -1.33 0 0 -8.05 3.35 0 0 12.09 -2.81 0 -6.67 -8.05 1.33 0 0 8.05 -3.35 0zm-111.03 17.05c-0.9,0 -1.76,-0.15 -2.58,-0.44 -0.82,-0.29 -1.46,-0.67 -1.91,-1.13l0.5 -0.98c0.43,0.41 1,0.76 1.72,1.04 0.72,0.28 1.48,0.42 2.27,0.42 0.76,0 1.38,-0.1 1.86,-0.29 0.48,-0.19 0.83,-0.45 1.05,-0.77 0.22,-0.32 0.34,-0.68 0.34,-1.07 0,-0.47 -0.14,-0.85 -0.41,-1.14 -0.27,-0.29 -0.62,-0.52 -1.06,-0.68 -0.44,-0.17 -0.92,-0.31 -1.45,-0.44 -0.53,-0.13 -1.06,-0.26 -1.59,-0.41 -0.53,-0.14 -1.02,-0.34 -1.46,-0.58 -0.44,-0.24 -0.8,-0.56 -1.07,-0.96 -0.27,-0.4 -0.41,-0.92 -0.41,-1.56 0,-0.6 0.16,-1.15 0.47,-1.65 0.32,-0.5 0.8,-0.9 1.46,-1.21 0.66,-0.31 1.5,-0.46 2.52,-0.46 0.68,0 1.35,0.1 2.02,0.28 0.67,0.19 1.24,0.45 1.73,0.79l-0.43 1.02c-0.52,-0.35 -1.07,-0.6 -1.65,-0.76 -0.58,-0.16 -1.14,-0.24 -1.68,-0.24 -0.73,0 -1.32,0.1 -1.8,0.29 -0.47,0.2 -0.82,0.46 -1.04,0.79 -0.22,0.33 -0.34,0.7 -0.34,1.11 0,0.47 0.14,0.85 0.41,1.14 0.27,0.29 0.63,0.51 1.07,0.67 0.44,0.16 0.93,0.31 1.46,0.43 0.53,0.13 1.06,0.26 1.58,0.41 0.52,0.15 1.01,0.34 1.45,0.58 0.44,0.24 0.8,0.55 1.07,0.94 0.27,0.39 0.41,0.9 0.41,1.54 0,0.59 -0.16,1.13 -0.48,1.63 -0.32,0.5 -0.81,0.9 -1.48,1.21 -0.66,0.31 -1.51,0.46 -2.55,0.46zm8.43 -6.79l6.39 0 0 1.09 -6.39 0 0 -1.09zm0.14 5.58l7.27 0 0 1.11 -8.55 0 0 -12.09 8.29 0 0 1.11 -7.01 0 0 9.88zm10.27 1.11l0 -12.09 4.52 0c1.02,0 1.91,0.16 2.64,0.49 0.74,0.33 1.3,0.8 1.7,1.42 0.4,0.62 0.6,1.36 0.6,2.24 0,0.85 -0.2,1.59 -0.6,2.2 -0.4,0.62 -0.96,1.09 -1.7,1.42 -0.74,0.33 -1.62,0.49 -2.64,0.49l-3.82 0 0.57 -0.59 0 4.42 -1.28 0zm8.25 0l-3.11 -4.39 1.38 0 3.13 4.39 -1.4 0zm-6.98 -4.32l-0.57 -0.6 3.78 0c1.21,0 2.13,-0.26 2.75,-0.79 0.63,-0.53 0.94,-1.27 0.94,-2.23 0,-0.97 -0.31,-1.72 -0.94,-2.24 -0.63,-0.53 -1.55,-0.79 -2.75,-0.79l-3.78 0 0.57 -0.6 0 7.27zm14.64 4.32l-5.35 -12.09 1.38 0 5.01 11.38 -0.76 0 5.04 -11.38 1.3 0 -5.35 12.09 -1.26 0zm8.36 0l0 -12.09 1.28 0 0 12.09 -1.28 0zm10.46 0.1c-0.91,0 -1.75,-0.15 -2.52,-0.46 -0.77,-0.31 -1.44,-0.73 -2,-1.29 -0.56,-0.55 -1,-1.2 -1.32,-1.95 -0.32,-0.75 -0.47,-1.57 -0.47,-2.45 0,-0.89 0.16,-1.7 0.47,-2.45 0.32,-0.75 0.76,-1.4 1.33,-1.95 0.57,-0.55 1.24,-0.98 2.01,-1.29 0.77,-0.31 1.61,-0.46 2.52,-0.46 0.87,0 1.7,0.15 2.47,0.44 0.77,0.29 1.42,0.73 1.95,1.32l-0.81 0.81c-0.5,-0.51 -1.04,-0.87 -1.64,-1.1 -0.6,-0.22 -1.24,-0.34 -1.93,-0.34 -0.73,0 -1.4,0.12 -2.02,0.37 -0.62,0.25 -1.16,0.6 -1.62,1.05 -0.46,0.45 -0.82,0.98 -1.08,1.59 -0.26,0.6 -0.39,1.27 -0.39,1.99 0,0.73 0.13,1.39 0.39,1.99 0.26,0.6 0.62,1.13 1.08,1.59 0.46,0.45 1,0.81 1.62,1.05 0.62,0.25 1.3,0.37 2.02,0.37 0.69,0 1.34,-0.12 1.93,-0.35 0.6,-0.23 1.15,-0.6 1.64,-1.11l0.81 0.81c-0.53,0.59 -1.18,1.03 -1.95,1.33 -0.77,0.3 -1.6,0.45 -2.49,0.45zm8.31 -6.79l6.39 0 0 1.09 -6.39 0 0 -1.09zm0.14 5.58l7.27 0 0 1.11 -8.55 0 0 -12.09 8.29 0 0 1.11 -7.01 0 0 9.88zm13.61 1.21c-0.9,0 -1.76,-0.15 -2.58,-0.44 -0.82,-0.29 -1.46,-0.67 -1.91,-1.13l0.5 -0.98c0.43,0.41 1,0.76 1.72,1.04 0.72,0.28 1.48,0.42 2.27,0.42 0.76,0 1.38,-0.1 1.86,-0.29 0.48,-0.19 0.83,-0.45 1.05,-0.77 0.22,-0.32 0.34,-0.68 0.34,-1.07 0,-0.47 -0.14,-0.85 -0.41,-1.14 -0.27,-0.29 -0.62,-0.52 -1.06,-0.68 -0.44,-0.17 -0.92,-0.31 -1.45,-0.44 -0.53,-0.13 -1.06,-0.26 -1.59,-0.41 -0.53,-0.14 -1.02,-0.34 -1.46,-0.58 -0.44,-0.24 -0.8,-0.56 -1.07,-0.96 -0.27,-0.4 -0.41,-0.92 -0.41,-1.56 0,-0.6 0.16,-1.15 0.47,-1.65 0.32,-0.5 0.8,-0.9 1.46,-1.21 0.66,-0.31 1.5,-0.46 2.52,-0.46 0.68,0 1.35,0.1 2.02,0.28 0.67,0.19 1.24,0.45 1.73,0.79l-0.43 1.02c-0.52,-0.35 -1.07,-0.6 -1.65,-0.76 -0.58,-0.16 -1.14,-0.24 -1.68,-0.24 -0.73,0 -1.32,0.1 -1.8,0.29 -0.47,0.2 -0.82,0.46 -1.04,0.79 -0.22,0.33 -0.34,0.7 -0.34,1.11 0,0.47 0.14,0.85 0.41,1.14 0.27,0.29 0.63,0.51 1.07,0.67 0.44,0.16 0.93,0.31 1.46,0.43 0.53,0.13 1.06,0.26 1.58,0.41 0.52,0.15 1.01,0.34 1.45,0.58 0.44,0.24 0.8,0.55 1.07,0.94 0.27,0.39 0.41,0.9 0.41,1.54 0,0.59 -0.16,1.13 -0.48,1.63 -0.32,0.5 -0.81,0.9 -1.48,1.21 -0.66,0.31 -1.51,0.46 -2.55,0.46zm11.81 -0.1l0 -12.09 1.28 0 0 10.98 6.77 0 0 1.11 -8.05 0zm11.4 0l0 -10.98 -4.25 0 0 -1.11 9.77 0 0 1.11 -4.25 0 0 10.98 -1.28 0zm7.56 0l0 -12.09 4.92 0c1.29,0 2.42,0.26 3.39,0.77 0.97,0.51 1.73,1.22 2.27,2.13 0.54,0.91 0.81,1.96 0.81,3.14 0,1.19 -0.27,2.23 -0.81,3.14 -0.54,0.91 -1.3,1.62 -2.27,2.13 -0.97,0.51 -2.1,0.77 -3.39,0.77l-4.92 0zm1.28 -1.11l3.57 0c1.07,0 2,-0.21 2.79,-0.63 0.79,-0.42 1.4,-1 1.84,-1.74 0.44,-0.74 0.66,-1.6 0.66,-2.56 0,-0.98 -0.22,-1.84 -0.66,-2.57 -0.44,-0.74 -1.05,-1.32 -1.84,-1.74 -0.79,-0.42 -1.72,-0.63 -2.79,-0.63l-3.57 0 0 9.88z"/>
  <g id="_105553919834496">
   <path class="fil1" d="M32.03 27.96c-1.62,0.75 -11.81,9.3 -17.12,11.65 -1.84,0.81 -3.67,1.38 -5.76,1.47 -0.83,0.03 -1.58,-0.07 -2.35,-0.07 4.64,2.85 9.76,4.2 14.96,2.04 2.3,-0.95 4.31,-2.27 6.08,-3.5 0.97,-0.67 1.81,-1.27 2.77,-1.98l2.76 -2.09 15.69 -11.38c0.41,-0.3 2.01,-1.51 2.33,-1.61 0.41,0.26 0.45,0.32 0.64,0.85l1.95 5.48c0.22,0.67 0.47,1.66 0.73,2.29 0.13,0.79 0.56,1.92 0.79,2.73 0.27,0.95 0.56,1.83 0.8,2.76 0.73,2.83 1.47,5.75 2.06,8.63 0.17,0.86 0.18,2.45 1.26,2.29 0.46,-0.07 1.7,-1.34 1.96,-1.61 0.82,-0.84 0.81,-1.34 0.8,-2.76 -0.01,-4.68 -0.11,-9.36 -0.11,-14.03l-0.09 -14.18 2.76 -2.41c0.98,-0.96 1.8,-1.68 2.69,-2.58 0.75,-0.76 1.62,-1.68 2.43,-2.77 0.36,-0.48 1.99,-2.91 0.82,-3.64 -2.35,-1.47 -10.12,3.47 -12.65,5.1 -0.45,0.29 -0.38,0.35 -0.93,0.16 -0.36,-0.12 -0.7,-0.24 -1.09,-0.32l-21.75 -6.92c-1.21,-0.39 -2.38,-0.75 -3.61,-1.14 -1.94,-0.63 -2.08,-0.5 -3.64,0.37 -2.93,1.63 -1.29,1.85 2.62,4.07 4.7,2.68 11.75,7.22 15.86,10.51 0.43,0.35 0.97,0.7 1.37,1.07 -0.24,0.27 -0.57,0.47 -0.89,0.71l-2.79 2.18c-2.04,1.66 -3.53,2.93 -5.6,4.43 -0.62,0.45 -1.3,0.96 -1.92,1.42l-3.85 2.8z"/>
   <path class="fil2" d="M42.85 43.95c0.42,-0.16 5.77,-4.25 6.91,-4.98 0.78,-0.5 1.61,-1.16 2.38,-1.63 0.04,-0.52 -0.9,-3.42 -1.1,-4.09 -0.24,-0.81 -0.93,-3.48 -1.27,-4.01 -0.3,0.07 -9.41,6.64 -9.95,7.06l-2.42 1.81c-0.24,0.18 -0.63,0.37 -0.83,0.68 -0.24,0.04 -1.84,1.29 -2.12,1.49 -0.35,0.26 -1.97,1.33 -2.14,1.6 -0.25,0.04 -1.1,0.68 -1.48,0.94 -1.16,0.8 -2.92,1.89 -4.2,2.56l-0.28 0.17c-0.09,0.07 -0.07,0.05 -0.13,0.12 -0.25,0.02 -1.73,0.76 -2.16,0.94 -1.45,0.61 -3.31,1.12 -4.93,1.3 -1.07,0.12 -1.93,0.07 -3,0.11 0.27,0.38 2.65,1.37 3.02,1.53 2.29,0.96 4.86,1.75 7.45,1.75 1.2,0 3.03,-0.13 4.03,-0.5 1.06,-0.18 2.77,-0.93 3.67,-1.37 0.51,-0.25 3.02,-1.53 3.2,-1.81 0.4,-0.12 5.06,-3.28 5.35,-3.65z"/>
   <path class="fil3" d="M27.71 25.31c0.43,-0.17 2.62,-1.9 3.2,-2.3 0.98,-0.68 2.16,-1.55 3.14,-2.28 1.01,-0.77 2.17,-1.57 3.13,-2.3 0.72,-0.55 1.64,-1.16 2.32,-1.76 0.35,-0.31 0.58,-0.4 0.74,-0.72 -0.11,-0.21 -0.04,-0.12 -0.26,-0.3 -0.97,-0.77 -2.86,-1.92 -3.89,-2.64 -0.87,-0.61 -0.64,-0.59 -1.46,-0.02 -0.93,0.64 -1.82,1.28 -2.74,1.93l-2.73 2.02c-1.2,0.79 -7.1,5.13 -8.21,5.98l-2.07 1.49c-0.14,0.09 -0.19,0.13 -0.35,0.24l-0.32 0.32c-0.29,0.06 -1.71,1.18 -1.94,1.36l-5.85 4.18c-1.98,1.3 -4.59,2.65 -7.12,2.88 -1.31,0.11 -2.12,-0.11 -3.28,-0.14 0.29,0.41 2.94,1.64 3.39,1.83 4.85,2.06 7.99,1.36 12.22,-1.07 2.46,-1.42 6.54,-4.63 9.11,-6.48l2.99 -2.2z"/>
  </g>
 </g>
</svg>
